<svg xmlns="http://www.w3.org/2000/svg" version="1.1" xmlns:xlink="http://www.w3.org/1999/xlink" xmlns:svgjs="http://svgjs.dev/svgjs" width="100%" height="100%" viewBox="0 0 1000 600"><rect width="1000" height="600" x="0" y="0" fill="transparent"/><g><rect width="333.3333333333333" height="333.3333333333333" rx="13.333333333333334" ry="13.333333333333334" y="77.7777739630807" fill="#2e3339" transform="matrix(2.2499999313354513,0,0,2.2499999313354517,0,-249.99999084472722)" x="55.55555725097656"/><path d="M183.18450716987928 169.44444777496943L183.18450716987928 169.44444777496943L183.18450716987928 273.60218777361115Q183.18450716987928 280.546037106854 185.73487158548386 283.86794033726335Q188.26380436734388 287.1898435676727 194.9076108281626 287.1898435676727L194.9076108281626 287.1898435676727L194.9076108281626 290.42602026310374Q190.12835650312206 289.95452432072307 185.3491021780815 289.95452432072307L185.3491021780815 289.95452432072307Q180.869890725465 289.95452432072307 176.7764486802509 290.42602026310374Q172.68300663503678 290.8975162054844 169.2968085033937 292.1191193289253L169.2968085033937 292.1191193289253L169.2968085033937 187.9613793302835Q169.2968085033937 181.01752999704075 166.8321706227674 177.6956267666314Q164.34610110839654 174.39515516996659 157.57370484511034 174.39515516996659L157.57370484511034 174.39515516996659L157.57370484511034 171.13754684079095Q162.50298060636294 171.60904278317167 167.13221349519148 171.60904278317167L167.13221349519148 171.60904278317167Q171.61142494780796 171.60904278317167 175.70486699302208 171.07325193955722Q179.7768774044916 170.53746109594283 183.18450716987928 169.44444777496943ZM150.77987694807962 208.79292733001185L150.77987694807962 208.79292733001185Q157.57370484511034 208.79292733001185 163.51026739235806 212.02910402544288Q169.44682993960572 215.28671235461852 171.4614035115959 223.15212193887808L171.4614035115959 223.15212193887808L169.44682993960572 224.6951995684876Q167.2822349314035 218.20141454388093 162.73872857755327 215.28671235461852Q158.1737905899585 212.35057853161155 152.00148007152046 212.35057853161155L152.00148007152046 212.35057853161155Q142.91446736382002 212.35057853161155 136.80645174661572 221.75906574548063Q130.719867763156 231.1675529593497 130.86988919936806 250.7774978356372L130.86988919936806 250.7774978356372Q130.86988919936806 263.2721403087253 133.2702321787606 271.52331930038724Q135.6491435244086 279.7744982920492 140.36410294821542 283.86794033726335Q145.05763073827768 287.9613823824774 151.85145863530843 287.9613823824774L151.85145863530843 287.9613823824774Q158.34524365991513 287.9613823824774 163.57456229359178 282.4105892426321Q168.82531256101302 276.8383644690422 169.91832588198642 266.03682106177564L169.91832588198642 266.03682106177564L171.76144638402 268.2014160699779Q170.51841162683456 279.9245197282612 164.2818062071628 286.2682833166559Q158.02376915374646 292.590615271306 147.37224718269195 292.590615271306L147.37224718269195 292.590615271306Q137.81373853261084 292.590615271306 130.6341412281777 287.9613823824774Q123.45454392374458 283.3321494936489 119.68257638469912 274.0736837159918Q115.91060884565366 264.81521793833485 115.91060884565366 250.7774978356372L115.91060884565366 250.7774978356372Q115.91060884565366 236.71834609919503 120.75415807192793 227.39558542030423Q125.61913893194681 218.05139310766887 133.5702750511847 213.4221602188404Q141.52141117042257 208.79292733001185 150.77987694807962 208.79292733001185ZM194.13607201335785 319.4444523532602L194.13607201335785 319.4444523532602L194.13607201335785 317.1298359088461Q203.69458066343896 316.6583399664653 208.4952666222241 308.85722528343945Q213.27452094726465 301.0775422341583 213.27452094726465 287.4898864400967L213.27452094726465 287.4898864400967L213.27452094726465 227.78135482770662Q213.27452094726465 220.83750549446384 210.80988306663835 217.51560226405448Q208.3238135522675 214.19369903364512 201.55141728898133 214.19369903364512L201.55141728898133 214.19369903364512L201.55141728898133 210.9575223382141Q206.48069305023392 211.42901828059476 211.10992593906244 211.42901828059476L211.10992593906244 211.42901828059476Q215.58913739167892 211.42901828059476 219.68257943689304 210.87179580323576Q223.75458984836257 210.33600495962136 227.1622196137502 209.26442327239252L227.1622196137502 209.26442327239252L227.1622196137502 272.68062752259436Q227.1622196137502 280.3960156706419 226.0692062927768 287.3398650038847Q224.997624605548 294.28371433712744 222.53298672492173 299.9845289131848Q220.06834884429543 305.70677512298676 216.03920170031503 310.0145335056467L216.03920170031503 310.0145335056467Q212.18150762629128 314.19370208583905 206.5664195852122 316.8083614026774Q200.9298999103886 319.4444523532602 194.13607201335785 319.4444523532602ZM218.82531408710997 172.3805815979764L218.82531408710997 172.3805815979764Q222.83302959734579 172.3805815979764 225.76916342035275 175.31671542098337Q228.70529724335975 178.25284924399034 228.70529724335975 182.26056475422615L228.70529724335975 182.26056475422615Q228.70529724335975 186.26828026446194 225.76916342035275 189.20441408746896Q222.83302959734579 192.14054791047593 218.82531408710997 192.14054791047593L218.82531408710997 192.14054791047593Q214.81759857687416 192.14054791047593 211.8814647538672 189.20441408746896Q208.9453309308602 186.26828026446194 208.9453309308602 182.26056475422615L208.9453309308602 182.26056475422615Q208.9453309308602 178.25284924399034 211.8814647538672 175.31671542098337Q214.81759857687416 172.3805815979764 218.82531408710997 172.3805815979764ZM245.82917260527637 184.25370669247175L245.82917260527637 181.16755143325275Q249.06534930070742 181.33900450320937 254.31609956812866 181.48902593942142Q259.5668498355499 181.63904737563342 264.64614703301453 181.63904737563342L264.64614703301453 181.63904737563342Q271.911470872426 181.63904737563342 278.5338456995001 181.48902593942142Q285.1776521603188 181.33900450320937 287.9637645471138 181.33900450320937L287.9637645471138 181.33900450320937Q304.1660796580136 181.33900450320937 312.3315321146972 188.1114007664955Q320.5184162051255 194.9052286635263 320.5184162051255 205.55675063458082L320.5184162051255 205.55675063458082Q320.5184162051255 210.9575223382141 318.26809466194493 216.12254607065702Q316.03920475250897 221.28756980309996 310.87418102006603 225.5310332845261Q305.70915728762304 229.77449676595225 297.0507772548142 232.41058771653516L297.0507772548142 232.41058771653516L297.0507772548142 232.71063058895922Q309.2453768554782 234.25370821856873 316.12493128748724 238.49717169999488Q322.98305408575175 242.74063518142103 325.76916647254666 248.46288139122296Q328.533847225597 254.1636959672803 328.533847225597 260.4860279219304L328.533847225597 260.4860279219304Q328.533847225597 269.29442939095134 324.14036230795887 276.0025307530037Q319.7468773903207 282.7106321150562 311.4099718636804 286.5683261890799Q303.0730663370402 290.42602026310374 291.49998411496887 290.42602026310374L291.49998411496887 290.42602026310374Q288.1137859833258 290.42602026310374 281.31995808629506 290.1902722919134Q274.5261301892643 289.95452432072307 264.96762153918314 289.95452432072307L264.96762153918314 289.95452432072307Q259.5668498355499 289.95452432072307 254.31609956812866 290.0402508557013Q249.06534930070742 290.1259773906796 245.82917260527637 290.42602026310374L245.82917260527637 290.42602026310374L245.82917260527637 287.3398650038847Q251.0799228726976 287.0398221314606 253.78030872451424 286.09683024669926Q256.48069457633085 285.17526999568247 257.4022548273477 282.4105892426321Q258.3238150783644 279.6244768558372 258.3238150783644 274.0736837159918L258.3238150783644 274.0736837159918L258.3238150783644 197.5413196141092Q258.3238150783644 191.81907340430726 257.4022548273477 189.11868755249063Q256.48069457633085 186.418301700674 253.78030872451424 185.41101491467887Q251.0799228726976 184.42515976242836 245.82917260527637 184.25370669247175L245.82917260527637 184.25370669247175ZM284.10607047308997 184.25370669247175L284.10607047308997 184.25370669247175Q276.9907680698906 184.25370669247175 274.84760469543295 186.88979764305466Q272.6830096872307 189.50445695989302 272.6830096872307 197.5413196141092L272.6830096872307 197.5413196141092L272.6830096872307 274.0736837159918Q272.6830096872307 279.4744554196251 273.60456993824755 282.23913617267544Q274.5261301892643 285.02524855947047 276.9907680698906 285.94680881048725Q279.4768375842615 286.86836906150404 284.25609190930203 286.86836906150404L284.25609190930203 286.86836906150404Q299.36539369922843 286.86836906150404 306.2449481312375 279.86022482702754Q313.103070929502 272.83064895880636 313.103070929502 259.8645105433376L313.103070929502 259.8645105433376Q313.103070929502 247.99138544884224 306.6950124398736 241.51903205798013Q300.3083855839898 235.02524703337346 285.6491481026994 235.02524703337346L285.6491481026994 235.02524703337346L269.74687586422374 235.02524703337346Q269.74687586422374 235.02524703337346 269.74687586422374 233.71791737495428Q269.74687586422374 232.41058771653516 269.74687586422374 232.41058771653516L269.74687586422374 232.41058771653516L283.01305715211663 232.41058771653516Q292.1215014935616 232.41058771653516 297.0507772548142 228.93866304991374Q302.00148464981135 225.46673838329238 303.8446051518449 219.68019727225672Q305.70915728762304 213.89365616122106 305.70915728762304 207.24984970040234L305.70915728762304 207.24984970040234Q305.70915728762304 195.82678891454307 300.6941549913922 190.0402478035074Q295.6791526951613 184.25370669247175 284.10607047308997 184.25370669247175Z " fill="#f5f5f5" transform="matrix(2.2499999313354513,0,0,2.2499999313354517,0,-249.99999084472722)"/><path d="MNaN 244.4444461398655 " fill="#2e3339" transform="matrix(2.2499999313354513,0,0,2.2499999313354517,0,-249.99999084472722)"/></g></svg>